<svg id="iconEdit" width="20" height="20" viewBox="0 0 20 20" fill="none" xmlns="http://www.w3.org/2000/svg">
<g clip-path="url(#clip0_205_3017)">
<path d="M10.7144 12.8571L6.42871 13.6286L7.143 9.28571L15.3287 1.12857C15.4615 0.994674 15.6195 0.888396 15.7936 0.815869C15.9677 0.743343 16.1544 0.706002 16.343 0.706002C16.5316 0.706002 16.7183 0.743343 16.8924 0.815869C17.0665 0.888396 17.2245 0.994674 17.3573 1.12857L18.8716 2.64286C19.0055 2.77566 19.1117 2.93366 19.1843 3.10775C19.2568 3.28183 19.2941 3.46855 19.2941 3.65714C19.2941 3.84573 19.2568 4.03245 19.1843 4.20654C19.1117 4.38062 19.0055 4.53862 18.8716 4.67143L10.7144 12.8571Z" stroke="currentColor" stroke-linecap="round" stroke-linejoin="round"/>
<path d="M17.1429 13.5714V17.8571C17.1429 18.236 16.9924 18.5994 16.7245 18.8673C16.4566 19.1352 16.0932 19.2857 15.7144 19.2857H2.14293C1.76405 19.2857 1.40068 19.1352 1.13277 18.8673C0.864865 18.5994 0.714355 18.236 0.714355 17.8571V4.28571C0.714355 3.90683 0.864865 3.54347 1.13277 3.27556C1.40068 3.00765 1.76405 2.85714 2.14293 2.85714H6.42864" stroke="currentColor" stroke-linecap="round" stroke-linejoin="round"/>
</g>
<defs>
<clipPath id="clip0_205_3017">
<rect width="20" height="20" fill="white"/>
</clipPath>
</defs>
</svg>
